# Blender 3.3.0
# www.blender.org
o Cube
v -1.000000 0.100000 1.712000
v -0.712000 0.100000 2.000000
v -0.990187 0.100000 1.786540
v -0.961415 0.100000 1.856000
v -0.915647 0.100000 1.915647
v -0.856000 0.100000 1.961415
v -0.786540 0.100000 1.990187
v -0.712000 -0.100000 2.000000
v -1.000000 -0.100000 1.712000
v -0.786540 -0.100000 1.990187
v -0.856000 -0.100000 1.961415
v -0.915647 -0.100000 1.915647
v -0.961415 -0.100000 1.856000
v -0.990187 -0.100000 1.786540
v -1.000000 -0.100000 0.000000
v -1.000000 0.100000 0.000000
v -1.057231 0.100000 1.712243
v -0.712802 0.100000 2.051211
v -1.048358 0.100000 1.803502
v -1.019943 0.100000 1.886451
v -0.962396 0.100000 1.961402
v -0.893973 0.100000 2.011921
v -0.805515 0.100000 2.041838
v -1.057231 0.100000 0.000000
v -1.057231 -0.100000 1.712243
v -0.712802 -0.100000 2.051211
v -1.048358 -0.100000 1.803502
v -1.019943 -0.100000 1.886451
v -0.962396 -0.100000 1.961402
v -0.893973 -0.100000 2.011921
v -0.805515 -0.100000 2.041838
v -1.057231 -0.100000 0.000000
v 0.000000 -0.100000 2.000000
v 0.000000 0.100000 2.000000
v 0.000000 0.100000 2.051211
v 0.000000 -0.100000 2.051211
v 1.000000 0.100000 1.712000
v 0.712000 0.100000 2.000000
v 0.990187 0.100000 1.786540
v 0.961415 0.100000 1.856000
v 0.915647 0.100000 1.915647
v 0.856000 0.100000 1.961415
v 0.786540 0.100000 1.990187
v 0.712000 -0.100000 2.000000
v 1.000000 -0.100000 1.712000
v 0.786540 -0.100000 1.990187
v 0.856000 -0.100000 1.961415
v 0.915647 -0.100000 1.915647
v 0.961415 -0.100000 1.856000
v 0.990187 -0.100000 1.786540
v 1.000000 -0.100000 0.000000
v 1.000000 0.100000 0.000000
v 1.057231 0.100000 1.712243
v 0.712802 0.100000 2.051211
v 1.048358 0.100000 1.803502
v 1.019943 0.100000 1.886451
v 0.962396 0.100000 1.961402
v 0.893973 0.100000 2.011921
v 0.805515 0.100000 2.041838
v 1.057231 0.100000 0.000000
v 1.057231 -0.100000 1.712243
v 0.712802 -0.100000 2.051211
v 1.048358 -0.100000 1.803502
v 1.019943 -0.100000 1.886451
v 0.962396 -0.100000 1.961402
v 0.893973 -0.100000 2.011921
v 0.805515 -0.100000 2.041838
v 1.057231 -0.100000 0.000000
vn -0.0000 -0.0000 -1.0000
vn 0.0654 -0.0000 -0.9979
vn 0.0452 0.7221 -0.6903
vn -0.0000 0.7071 -0.7071
vn 0.2588 -0.0000 -0.9659
vn 0.1747 0.7377 -0.6521
vn 0.5000 -0.0000 -0.8660
vn 0.3376 0.7377 -0.5847
vn 0.7071 -0.0000 -0.7071
vn 0.4774 0.7377 -0.4774
vn 0.8660 -0.0000 -0.5000
vn 0.5847 0.7377 -0.3376
vn 0.9659 -0.0000 -0.2588
vn 0.6521 0.7377 -0.1747
vn 0.9979 -0.0000 -0.0654
vn 0.6903 0.7221 -0.0452
vn 1.0000 -0.0000 -0.0000
vn 0.7071 0.7071 -0.0000
vn -0.5155 0.6770 0.5253
vn -0.3418 0.6740 0.6549
vn -0.1548 0.6827 0.7142
vn -0.0362 0.6959 0.7172
vn -0.7168 0.6964 0.0348
vn -0.7149 0.6818 0.1550
vn -0.0000 0.7071 0.7071
vn -0.6522 0.6725 0.3499
vn -0.7071 0.7071 -0.0000
vn -0.9773 -0.0000 0.2119
vn -0.8812 -0.0000 0.4728
vn -0.9988 -0.0000 0.0484
vn -0.0504 -0.0000 0.9987
vn -0.0000 -0.0000 1.0000
vn -1.0000 -0.0000 -0.0000
vn -0.2118 -0.0000 0.9773
vn -0.4627 -0.0000 0.8865
vn -0.7004 -0.0000 0.7137
vn -0.0452 0.7221 -0.6903
vn -0.0654 -0.0000 -0.9979
vn -0.1747 0.7377 -0.6521
vn -0.2588 -0.0000 -0.9659
vn -0.3376 0.7377 -0.5847
vn -0.5000 -0.0000 -0.8660
vn -0.4774 0.7377 -0.4774
vn -0.7071 -0.0000 -0.7071
vn -0.5847 0.7377 -0.3376
vn -0.8660 -0.0000 -0.5000
vn -0.6521 0.7377 -0.1747
vn -0.9659 -0.0000 -0.2588
vn -0.6903 0.7221 -0.0452
vn -0.9979 -0.0000 -0.0654
vn 0.3418 0.6740 0.6549
vn 0.5155 0.6770 0.5253
vn 0.0362 0.6959 0.7172
vn 0.1548 0.6827 0.7142
vn 0.7149 0.6818 0.1550
vn 0.7168 0.6964 0.0348
vn 0.6522 0.6725 0.3499
vn 0.8812 -0.0000 0.4728
vn 0.9773 -0.0000 0.2119
vn 0.9988 -0.0000 0.0484
vn 0.0504 -0.0000 0.9987
vn 0.2118 -0.0000 0.9773
vn 0.4627 -0.0000 0.8865
vn 0.7004 -0.0000 0.7137
vt 0.557873 0.423862
vt 0.557873 0.253639
vt 0.557873 0.396175
vt 0.557873 0.367816
vt 0.557873 0.339723
vt 0.557873 0.312394
vt 0.557873 0.283533
vt 0.999762 0.253639
vt 0.999762 0.423862
vt 0.999762 0.283533
vt 0.999762 0.312394
vt 0.999762 0.339723
vt 0.999762 0.367816
vt 0.999762 0.396175
vt 0.999762 1.000126
vt 0.557873 0.999534
vt 0.432180 0.423862
vt 0.432180 0.253639
vt 0.432180 0.396175
vt 0.432180 0.367816
vt 0.432180 0.339723
vt 0.432180 0.312394
vt 0.432180 0.283533
vt 0.432180 0.999721
vt 0.000020 0.423862
vt 0.000020 0.253639
vt 0.000020 0.396175
vt 0.000020 0.367816
vt 0.000020 0.339723
vt 0.000020 0.312394
vt 0.000020 0.283533
vt 0.000020 0.999833
vt 0.999762 0.002401
vt 0.002272 0.000128
vt 0.557873 0.002401
vt 0.432099 0.000128
vt 0.432180 0.002401
vt 0.558091 0.000128
vt 0.000020 0.002401
vt 1.001634 0.000128
vt 0.432099 0.424341
vt 0.432099 0.253672
vt 0.432099 0.395960
vt 0.432099 0.367803
vt 0.432099 0.340010
vt 0.432099 0.312651
vt 0.432099 0.285305
vt 0.002272 0.253672
vt 0.002272 0.424342
vt 0.002272 0.285305
vt 0.002272 0.312651
vt 0.002272 0.340010
vt 0.002272 0.367803
vt 0.002272 0.395960
vt 0.002272 0.999607
vt 0.433212 0.999607
vt 0.558091 0.424341
vt 0.558091 0.253672
vt 0.558091 0.395960
vt 0.558091 0.367803
vt 0.558091 0.340010
vt 0.558091 0.312651
vt 0.558091 0.285305
vt 0.558091 0.999607
vt 1.001634 0.424341
vt 1.001634 0.253671
vt 1.001634 0.395960
vt 1.001634 0.367803
vt 1.001634 0.340010
vt 1.001634 0.312651
vt 1.001634 0.285305
vt 1.001634 0.999607
s 1
f 33/33/1 8/8/2 2/2/3 34/35/4
f 8/8/2 10/10/5 7/7/6 2/2/3
f 10/10/5 11/11/7 6/6/8 7/7/6
f 11/11/7 12/12/9 5/5/10 6/6/8
f 12/12/9 13/13/11 4/4/12 5/5/10
f 13/13/11 14/14/13 3/3/14 4/4/12
f 14/14/13 9/9/15 1/1/16 3/3/14
f 9/9/15 15/15/17 16/16/18 1/1/16
f 6/6/8 5/5/10 21/21/19 22/22/20
f 2/2/3 7/7/6 23/23/21 18/18/22
f 3/3/14 1/1/16 17/17/23 19/19/24
f 34/35/4 2/2/3 18/18/22 35/37/25
f 5/5/10 4/4/12 20/20/26 21/21/19
f 7/7/6 6/6/8 22/22/20 23/23/21
f 4/4/12 3/3/14 19/19/24 20/20/26
f 1/1/16 16/16/18 24/24/27 17/17/23
f 20/20/26 19/19/24 27/27/28 28/28/29
f 19/19/24 17/17/23 25/25/30 27/27/28
f 35/37/25 18/18/22 26/26/31 36/39/32
f 17/17/23 24/24/27 32/32/33 25/25/30
f 18/18/22 23/23/21 31/31/34 26/26/31
f 23/23/21 22/22/20 30/30/35 31/31/34
f 22/22/20 21/21/19 29/29/36 30/30/35
f 21/21/19 20/20/26 28/28/29 29/29/36
f 33/34/1 34/36/4 38/42/37 44/48/38
f 44/48/38 38/42/37 43/47/39 46/50/40
f 46/50/40 43/47/39 42/46/41 47/51/42
f 47/51/42 42/46/41 41/45/43 48/52/44
f 48/52/44 41/45/43 40/44/45 49/53/46
f 49/53/46 40/44/45 39/43/47 50/54/48
f 50/54/48 39/43/47 37/41/49 45/49/50
f 45/49/50 37/41/49 52/56/27 51/55/33
f 42/46/41 58/62/51 57/61/52 41/45/43
f 38/42/37 54/58/53 59/63/54 43/47/39
f 39/43/47 55/59/55 53/57/56 37/41/49
f 34/36/4 35/38/25 54/58/53 38/42/37
f 41/45/43 57/61/52 56/60/57 40/44/45
f 43/47/39 59/63/54 58/62/51 42/46/41
f 40/44/45 56/60/57 55/59/55 39/43/47
f 37/41/49 53/57/56 60/64/18 52/56/27
f 56/60/57 64/68/58 63/67/59 55/59/55
f 55/59/55 63/67/59 61/65/60 53/57/56
f 35/38/25 36/40/32 62/66/61 54/58/53
f 53/57/56 61/65/60 68/72/17 60/64/18
f 54/58/53 62/66/61 67/71/62 59/63/54
f 59/63/54 67/71/62 66/70/63 58/62/51
f 58/62/51 66/70/63 65/69/64 57/61/52
f 57/61/52 65/69/64 64/68/58 56/60/57
