# Blender 3.3.0
# www.blender.org
o Cube
v -2.000000 -0.712000 0.100000
v -1.712000 -1.000000 0.100000
v -1.990187 -0.786540 0.100000
v -1.961415 -0.856000 0.100000
v -1.915647 -0.915647 0.100000
v -1.856000 -0.961415 0.100000
v -1.786540 -0.990187 0.100000
v -1.712000 -1.000000 -0.100000
v -2.000000 -0.712000 -0.100000
v -1.786540 -0.990187 -0.100000
v -1.856000 -0.961415 -0.100000
v -1.915647 -0.915647 -0.100000
v -1.961415 -0.856000 -0.100000
v -1.990187 -0.786540 -0.100000
v -1.712000 1.000000 0.100000
v -2.000000 0.712000 0.100000
v -1.786540 0.990187 0.100000
v -1.856000 0.961415 0.100000
v -1.915647 0.915647 0.100000
v -1.961415 0.856000 0.100000
v -1.990187 0.786540 0.100000
v -2.000000 0.712000 -0.100000
v -1.712000 1.000000 -0.100000
v -1.990187 0.786540 -0.100000
v -1.961415 0.856000 -0.100000
v -1.915647 0.915647 -0.100000
v -1.856000 0.961415 -0.100000
v -1.786540 0.990187 -0.100000
v 0.000000 -1.000000 -0.100000
v 0.000000 -1.000000 0.100000
v 0.000000 1.000000 -0.100000
v 0.000000 1.000000 0.100000
vn 0.9979 0.0654 -0.0000
vn 0.9979 -0.0654 -0.0000
vn -0.0000 1.0000 -0.0000
vn 0.0654 0.9979 -0.0000
vn 0.9659 -0.2588 -0.0000
vn 0.8660 -0.5000 -0.0000
vn 0.7071 -0.7071 -0.0000
vn 0.5000 -0.8660 -0.0000
vn 0.2588 -0.9659 -0.0000
vn 0.0654 -0.9979 -0.0000
vn 0.9659 0.2588 -0.0000
vn 0.8660 0.5000 -0.0000
vn 0.7071 0.7071 -0.0000
vn 0.5000 0.8660 -0.0000
vn 0.2588 0.9659 -0.0000
vn -0.0000 -1.0000 -0.0000
vt 0.000019 0.623817
vt 0.000019 0.702263
vt 0.000019 0.636891
vt 0.000019 0.649966
vt 0.000019 0.663040
vt 0.000019 0.676114
vt 0.000019 0.689189
vt 1.002121 0.702263
vt 1.002121 0.623817
vt 1.002121 0.689189
vt 1.002121 0.676114
vt 1.002121 0.663040
vt 1.002121 0.649966
vt 1.002121 0.636891
vt 0.000019 0.297736
vt 0.000019 0.376182
vt 0.000019 0.310810
vt 0.000019 0.323885
vt 0.000019 0.336959
vt 0.000019 0.350034
vt 0.000019 0.363108
vt 1.002121 0.376182
vt 1.002121 0.297736
vt 1.002121 0.363108
vt 1.002121 0.350034
vt 1.002121 0.336959
vt 1.002121 0.323885
vt 1.002121 0.310810
vt 1.002121 0.999981
vt 0.000019 0.999981
vt 1.002121 0.000019
vt 0.000019 0.000019
s 1
f 9/9/1 22/22/2 16/16/2 1/1/1
f 29/29/3 8/8/4 2/2/4 30/30/3
f 22/22/2 24/24/5 21/21/5 16/16/2
f 24/24/5 25/25/6 20/20/6 21/21/5
f 25/25/6 26/26/7 19/19/7 20/20/6
f 26/26/7 27/27/8 18/18/8 19/19/7
f 27/27/8 28/28/9 17/17/9 18/18/8
f 28/28/9 23/23/10 15/15/10 17/17/9
f 1/1/1 3/3/11 14/14/11 9/9/1
f 3/3/11 4/4/12 13/13/12 14/14/11
f 4/4/12 5/5/13 12/12/13 13/13/12
f 5/5/13 6/6/14 11/11/14 12/12/13
f 6/6/14 7/7/15 10/10/15 11/11/14
f 7/7/15 2/2/4 8/8/4 10/10/15
f 23/23/10 31/31/16 32/32/16 15/15/10
