# Blender 3.3.0
# www.blender.org
o Pupil
v 0.005794 -0.085078 -0.000000
v -0.002028 0.077968 0.000000
v 0.042584 0.017406 -0.000000
v -0.036448 -0.023296 -0.000000
v -0.038788 0.015505 0.000000
v 0.042590 -0.022633 -0.000000
v -0.049977 -0.003509 0.000000
v 0.055695 -0.000394 -0.000000
v 0.028011 0.040897 0.000000
v -0.027182 0.040155 0.000000
v 0.028174 -0.052840 -0.000000
v -0.021680 -0.048589 -0.000000
v 0.002700 -0.031276 -0.000000
v 0.002700 -0.015023 -0.000000
v 0.001710 0.001092 0.000000
v 0.001287 0.014303 0.000000
v 0.000875 0.029320 0.000000
vn -0.0000 -0.0000 1.0000
vt 1.000000 0.000000
vt 0.000000 1.000000
vt 0.500000 0.691382
vt 0.500000 0.319760
vt 0.316260 0.500000
vt 0.683903 0.500000
vt 0.366017 0.372675
vt 0.624485 0.647668
vt 0.292096 0.819708
vt 0.182350 0.711709
vt 0.844877 0.245372
vt 0.723412 0.176883
vt 0.000000 0.000000
vt 0.000000 0.000000
vt 0.000000 0.000000
vt 0.000000 0.000000
vt 0.000000 0.000000
s 0
f 11/11/1 13/13/1 12/12/1 1/1/1
f 9/9/1 2/2/1 10/10/1 17/17/1
f 9/9/1 17/17/1 16/16/1 3/3/1
f 7/7/1 15/15/1 16/16/1 5/5/1
f 4/4/1 14/14/1 15/15/1 7/7/1
f 6/6/1 14/14/1 13/13/1 11/11/1
f 10/10/1 5/5/1 16/16/1 17/17/1
f 14/14/1 6/6/1 8/8/1 15/15/1
f 4/4/1 12/12/1 13/13/1 14/14/1
f 16/16/1 15/15/1 8/8/1 3/3/1
