# Blender 3.3.0
# www.blender.org
mtllib Mallet.mtl
o Cylinder
v 0.000000 -0.005999 -0.176529
v 0.000000 0.112974 -0.206091
v 0.067555 -0.005999 -0.163092
v 0.078868 0.112974 -0.190403
v 0.124825 -0.005999 -0.124825
v 0.145728 0.112974 -0.145728
v 0.163092 -0.005999 -0.067555
v 0.190403 0.112974 -0.078868
v 0.176529 -0.005999 -0.000000
v 0.206091 0.112974 0.000000
v 0.163092 -0.005999 0.067555
v 0.190403 0.112974 0.078868
v 0.124825 -0.005999 0.124825
v 0.145728 0.112974 0.145728
v 0.067555 -0.005999 0.163092
v 0.078868 0.112974 0.190403
v 0.000000 -0.005999 0.176529
v 0.000000 0.112974 0.206091
v -0.067555 -0.005999 0.163092
v -0.078868 0.112974 0.190403
v -0.124825 -0.005999 0.124825
v -0.145728 0.112974 0.145728
v -0.163092 -0.005999 0.067555
v -0.190403 0.112974 0.078868
v -0.176529 -0.005999 -0.000000
v -0.206091 0.112974 0.000000
v -0.163092 -0.005999 -0.067555
v -0.190403 0.112974 -0.078868
v -0.124825 -0.005999 -0.124825
v -0.145728 0.112974 -0.145728
v -0.067555 -0.005999 -0.163092
v -0.078868 0.112974 -0.190403
v 0.087376 0.112974 -0.210944
v 0.000000 0.112974 -0.228324
v 0.161450 0.112974 -0.161450
v 0.210944 0.112974 -0.087376
v 0.228324 0.112974 0.000000
v 0.210944 0.112974 0.087376
v 0.161450 0.112974 0.161450
v 0.087376 0.112974 0.210944
v 0.000000 0.112974 0.228324
v -0.087376 0.112974 0.210944
v -0.161450 0.112974 0.161450
v -0.210944 0.112974 0.087376
v -0.228324 0.112974 0.000000
v -0.210944 0.112974 -0.087376
v -0.161450 0.112974 -0.161450
v -0.087376 0.112974 -0.210944
v 0.037130 0.045331 -0.089640
v -0.000000 0.045331 -0.097026
v 0.068608 0.045331 -0.068608
v 0.089640 0.045331 -0.037130
v 0.097026 0.045331 0.000000
v 0.089640 0.045331 0.037130
v 0.068608 0.045331 0.068608
v 0.037130 0.045331 0.089640
v -0.000000 0.045331 0.097026
v -0.037130 0.045331 0.089640
v -0.068608 0.045331 0.068608
v -0.089640 0.045331 0.037130
v -0.097026 0.045331 0.000000
v -0.089640 0.045331 -0.037130
v -0.068608 0.045331 -0.068608
v -0.037130 0.045331 -0.089640
v 0.065254 0.045331 -0.157538
v -0.000000 0.045331 -0.170518
v 0.120574 0.045331 -0.120574
v 0.157538 0.045331 -0.065254
v 0.170518 0.045331 0.000000
v 0.157538 0.045331 0.065254
v 0.120574 0.045331 0.120574
v 0.065254 0.045331 0.157538
v -0.000000 0.045331 0.170518
v -0.065254 0.045331 0.157538
v -0.120574 0.045331 0.120574
v -0.157538 0.045331 0.065254
v -0.170518 0.045331 0.000000
v -0.157538 0.045331 -0.065254
v -0.120574 0.045331 -0.120574
v -0.065254 0.045331 -0.157538
v 0.025538 0.204055 -0.061654
v 0.000000 0.204055 -0.066734
v 0.047188 0.204055 -0.047188
v 0.061654 0.204055 -0.025538
v 0.066734 0.204055 0.000000
v 0.061654 0.204055 0.025538
v 0.047188 0.204055 0.047188
v 0.025538 0.204055 0.061654
v 0.000000 0.204055 0.066734
v -0.025538 0.204055 0.061654
v -0.047188 0.204055 0.047188
v -0.061654 0.204055 0.025538
v -0.066734 0.204055 0.000000
v -0.061654 0.204055 -0.025538
v -0.047188 0.204055 -0.047188
v -0.025538 0.204055 -0.061654
vn -0.0000 -0.3992 -0.9169
vn 0.3509 -0.3992 -0.8471
vn 0.6483 -0.3992 -0.6483
vn 0.8471 -0.3992 -0.3509
vn 0.9169 -0.3992 -0.0000
vn 0.8471 -0.3992 0.3509
vn 0.6483 -0.3992 0.6483
vn 0.3509 -0.3992 0.8471
vn -0.0000 -0.3992 0.9169
vn -0.3509 -0.3992 0.8471
vn -0.6483 -0.3992 0.6483
vn -0.8471 -0.3992 0.3509
vn -0.9169 -0.3992 -0.0000
vn -0.8471 -0.3992 -0.3509
vn -0.6483 -0.3992 -0.6483
vn 0.8851 0.4655 -0.0000
vn 0.8177 0.4655 -0.3387
vn -0.3509 -0.3992 -0.8471
vn -0.0000 -1.0000 -0.0000
vn -0.0000 1.0000 -0.0000
vn -0.6946 0.1875 0.6946
vn -0.3759 0.1875 0.9075
vn -0.8177 0.4655 -0.3387
vn -0.8851 0.4655 -0.0000
vn 0.8177 0.4655 0.3387
vn -0.6258 0.4655 -0.6258
vn 0.6258 0.4655 0.6258
vn -0.3387 0.4655 -0.8177
vn 0.3387 0.4655 0.8177
vn -0.0000 0.4655 -0.8851
vn -0.3387 0.4655 0.8177
vn -0.0000 0.4655 0.8851
vn 0.3387 0.4655 -0.8177
vn -0.6258 0.4655 0.6258
vn 0.6258 0.4655 -0.6258
vn -0.8177 0.4655 0.3387
vn 0.9075 0.1875 -0.3759
vn 0.6946 0.1875 -0.6946
vn -0.9075 0.1875 0.3759
vn 0.9823 0.1875 -0.0000
vn -0.9823 0.1875 -0.0000
vn 0.9075 0.1875 0.3759
vn -0.9075 0.1875 -0.3759
vn 0.6946 0.1875 0.6946
vn -0.6946 0.1875 -0.6946
vn 0.3759 0.1875 0.9075
vn -0.3759 0.1875 -0.9075
vn -0.0000 0.1875 0.9823
vn 0.3759 0.1875 -0.9075
vn -0.0000 0.1875 -0.9823
vt 1.000000 0.500000
vt 0.000000 0.500000
vt 0.750000 0.490000
vt 0.250000 0.466629
vt 0.937500 0.500000
vt 0.841844 0.471731
vt 0.332900 0.450139
vt 0.875000 0.500000
vt 0.919706 0.419706
vt 0.403180 0.403180
vt 0.812500 0.500000
vt 0.971731 0.341844
vt 0.450139 0.332900
vt 0.750000 0.500000
vt 0.990000 0.250000
vt 0.466629 0.250000
vt 0.687500 0.500000
vt 0.971731 0.158156
vt 0.450140 0.167099
vt 0.625000 0.500000
vt 0.919706 0.080294
vt 0.403180 0.096820
vt 0.562500 0.500000
vt 0.841844 0.028269
vt 0.332900 0.049860
vt 0.500000 0.500000
vt 0.750000 0.010000
vt 0.250000 0.033371
vt 0.437500 0.500000
vt 0.658156 0.028269
vt 0.167099 0.049861
vt 0.375000 0.500000
vt 0.580294 0.080294
vt 0.096820 0.096820
vt 0.312500 0.500000
vt 0.528269 0.158156
vt 0.049860 0.167099
vt 0.250000 0.500000
vt 0.510000 0.250000
vt 0.033371 0.250000
vt 0.187500 0.500000
vt 0.528269 0.341844
vt 0.049860 0.332900
vt 0.125000 0.500000
vt 0.580294 0.419706
vt 0.096820 0.403180
vt 0.062500 0.500000
vt 0.658156 0.471731
vt 0.167099 0.450139
vt 0.937500 1.000000
vt 0.341844 0.471731
vt 1.000000 1.000000
vt 0.000000 1.000000
vt 0.250000 0.490000
vt 0.875000 1.000000
vt 0.419706 0.419706
vt 0.812500 1.000000
vt 0.471731 0.341844
vt 0.750000 1.000000
vt 0.490000 0.250000
vt 0.687500 1.000000
vt 0.471731 0.158156
vt 0.625000 1.000000
vt 0.419706 0.080294
vt 0.562500 1.000000
vt 0.341844 0.028269
vt 0.500000 1.000000
vt 0.250000 0.010000
vt 0.437500 1.000000
vt 0.158156 0.028269
vt 0.375000 1.000000
vt 0.080294 0.080294
vt 0.312500 1.000000
vt 0.028269 0.158156
vt 0.250000 1.000000
vt 0.010000 0.250000
vt 0.187500 1.000000
vt 0.028269 0.341844
vt 0.125000 1.000000
vt 0.080294 0.419706
vt 0.062500 1.000000
vt 0.158156 0.471731
vt 0.297171 0.363881
vt 0.250000 0.373264
vt 0.337161 0.337161
vt 0.363881 0.297171
vt 0.373264 0.250000
vt 0.363881 0.202829
vt 0.337161 0.162839
vt 0.297171 0.136119
vt 0.250000 0.126736
vt 0.202829 0.136119
vt 0.162839 0.162839
vt 0.136119 0.202829
vt 0.126736 0.250000
vt 0.136119 0.297171
vt 0.162839 0.337161
vt 0.202829 0.363881
vt 0.332900 0.450139
vt 0.250000 0.466629
vt 0.403180 0.403180
vt 0.450139 0.332900
vt 0.466629 0.250000
vt 0.450140 0.167099
vt 0.403180 0.096820
vt 0.332900 0.049860
vt 0.250000 0.033371
vt 0.167099 0.049861
vt 0.096820 0.096820
vt 0.049860 0.167099
vt 0.033371 0.250000
vt 0.049860 0.332900
vt 0.096820 0.403180
vt 0.167099 0.450139
vt 0.297171 0.363881
vt 0.250000 0.373264
vt 0.337161 0.337161
vt 0.363881 0.297171
vt 0.373264 0.250000
vt 0.363881 0.202829
vt 0.337161 0.162839
vt 0.297171 0.136119
vt 0.250000 0.126736
vt 0.202829 0.136119
vt 0.162839 0.162839
vt 0.136119 0.202829
vt 0.126736 0.250000
vt 0.136119 0.297171
vt 0.162839 0.337161
vt 0.202829 0.363881
s 1
f 1/1/1 34/52/1 33/50/2 3/5/2
f 3/5/2 33/50/2 35/55/3 5/8/3
f 5/8/3 35/55/3 36/57/4 7/11/4
f 7/11/4 36/57/4 37/59/5 9/14/5
f 9/14/5 37/59/5 38/61/6 11/17/6
f 11/17/6 38/61/6 39/63/7 13/20/7
f 13/20/7 39/63/7 40/65/8 15/23/8
f 15/23/8 40/65/8 41/67/9 17/26/9
f 17/26/9 41/67/9 42/69/10 19/29/10
f 19/29/10 42/69/10 43/71/11 21/32/11
f 21/32/11 43/71/11 44/73/12 23/35/12
f 23/35/12 44/73/12 45/75/13 25/38/13
f 25/38/13 45/75/13 46/77/14 27/41/14
f 27/41/14 46/77/14 47/79/15 29/44/15
f 26/40/16 24/37/17 76/110/17 77/111/16
f 29/44/15 47/79/15 48/81/18 31/47/18
f 31/47/18 48/81/18 34/53/1 1/2/1
f 1/3/19 3/6/19 5/9/19 7/12/19 9/15/19 11/18/19 13/21/19 15/24/19 17/27/19 19/30/19 21/33/19 23/36/19 25/39/19 27/42/19 29/45/19 31/48/19
f 2/4/20 4/7/20 33/51/20 34/54/20
f 4/7/20 6/10/20 35/56/20 33/51/20
f 6/10/20 8/13/20 36/58/20 35/56/20
f 8/13/20 10/16/20 37/60/20 36/58/20
f 10/16/20 12/19/20 38/62/20 37/60/20
f 12/19/20 14/22/20 39/64/20 38/62/20
f 14/22/20 16/25/20 40/66/20 39/64/20
f 16/25/20 18/28/20 41/68/20 40/66/20
f 18/28/20 20/31/20 42/70/20 41/68/20
f 20/31/20 22/34/20 43/72/20 42/70/20
f 22/34/20 24/37/20 44/74/20 43/72/20
f 24/37/20 26/40/20 45/76/20 44/74/20
f 26/40/20 28/43/20 46/78/20 45/76/20
f 28/43/20 30/46/20 47/80/20 46/78/20
f 30/46/20 32/49/20 48/82/20 47/80/20
f 32/49/20 2/4/20 34/54/20 48/82/20
f 59/93/21 58/92/22 90/124/22 91/125/21
f 12/19/23 10/16/24 69/103/24 70/104/23
f 28/43/25 26/40/16 77/111/16 78/112/25
f 14/22/26 12/19/23 70/104/23 71/105/26
f 30/46/27 28/43/25 78/112/25 79/113/27
f 16/25/28 14/22/26 71/105/26 72/106/28
f 32/49/29 30/46/27 79/113/27 80/114/29
f 18/28/30 16/25/28 72/106/28 73/107/30
f 4/7/31 2/4/32 66/100/32 65/99/31
f 2/4/32 32/49/29 80/114/29 66/100/32
f 20/31/33 18/28/30 73/107/30 74/108/33
f 6/10/34 4/7/31 65/99/31 67/101/34
f 22/34/35 20/31/33 74/108/33 75/109/35
f 8/13/36 6/10/34 67/101/34 68/102/36
f 24/37/17 22/34/35 75/109/35 76/110/17
f 10/16/24 8/13/36 68/102/36 69/103/24
f 50/84/20 49/83/20 65/99/20 66/100/20
f 49/83/20 51/85/20 67/101/20 65/99/20
f 51/85/20 52/86/20 68/102/20 67/101/20
f 52/86/20 53/87/20 69/103/20 68/102/20
f 53/87/20 54/88/20 70/104/20 69/103/20
f 54/88/20 55/89/20 71/105/20 70/104/20
f 55/89/20 56/90/20 72/106/20 71/105/20
f 56/90/20 57/91/20 73/107/20 72/106/20
f 57/91/20 58/92/20 74/108/20 73/107/20
f 58/92/20 59/93/20 75/109/20 74/108/20
f 59/93/20 60/94/20 76/110/20 75/109/20
f 60/94/20 61/95/20 77/111/20 76/110/20
f 61/95/20 62/96/20 78/112/20 77/111/20
f 62/96/20 63/97/20 79/113/20 78/112/20
f 63/97/20 64/98/20 80/114/20 79/113/20
f 64/98/20 50/84/20 66/100/20 80/114/20
f 88/122/20 87/121/20 90/124/20 89/123/20
f 52/86/37 51/85/38 83/117/38 84/118/37
f 60/94/39 59/93/21 91/125/21 92/126/39
f 53/87/40 52/86/37 84/118/37 85/119/40
f 61/95/41 60/94/39 92/126/39 93/127/41
f 54/88/42 53/87/40 85/119/40 86/120/42
f 62/96/43 61/95/41 93/127/41 94/128/43
f 55/89/44 54/88/42 86/120/42 87/121/44
f 63/97/45 62/96/43 94/128/43 95/129/45
f 56/90/46 55/89/44 87/121/44 88/122/46
f 64/98/47 63/97/45 95/129/45 96/130/47
f 57/91/48 56/90/46 88/122/46 89/123/48
f 49/83/49 50/84/50 82/116/50 81/115/49
f 50/84/50 64/98/47 96/130/47 82/116/50
f 58/92/22 57/91/48 89/123/48 90/124/22
f 51/85/38 49/83/49 81/115/49 83/117/38
f 87/121/20 86/120/20 91/125/20 90/124/20
f 86/120/20 85/119/20 92/126/20 91/125/20
f 85/119/20 84/118/20 93/127/20 92/126/20
f 84/118/20 83/117/20 94/128/20 93/127/20
f 83/117/20 81/115/20 95/129/20 94/128/20
f 81/115/20 82/116/20 96/130/20 95/129/20
